<?xml version="1.0" encoding="UTF-8" standalone="no"?>
<!-- Created with Inkscape (http://www.inkscape.org/) -->
<svg
   xmlns:dc="http://purl.org/dc/elements/1.1/"
   xmlns:cc="http://web.resource.org/cc/"
   xmlns:rdf="http://www.w3.org/1999/02/22-rdf-syntax-ns#"
   xmlns:svg="http://www.w3.org/2000/svg"
   xmlns="http://www.w3.org/2000/svg"
   xmlns:sodipodi="http://inkscape.sourceforge.net/DTD/sodipodi-0.dtd"
   xmlns:inkscape="http://www.inkscape.org/namespaces/inkscape"
   width="40"
   height="40"
   id="svg2"
   sodipodi:version="0.32"
   inkscape:version="0.43"
   version="1.0"
   sodipodi:docbase="C:\Program Files\Inkscape"
   sodipodi:docname="Entrez.svg">
  <defs
     id="defs4" />
  <sodipodi:namedview
     id="base"
     pagecolor="#ffffff"
     bordercolor="#666666"
     borderopacity="1.0"
     inkscape:pageopacity="0.0"
     inkscape:pageshadow="2"
     inkscape:zoom="8.3125"
     inkscape:cx="29.653669"
     inkscape:cy="18.492659"
     inkscape:document-units="px"
     inkscape:current-layer="layer1"
     inkscape:window-width="756"
     inkscape:window-height="540"
     inkscape:window-x="148"
     inkscape:window-y="95" />
  <metadata
     id="metadata7">
    <rdf:RDF>
      <cc:Work
         rdf:about="">
        <dc:format>image/svg+xml</dc:format>
        <dc:type
           rdf:resource="http://purl.org/dc/dcmitype/StillImage" />
      </cc:Work>
    </rdf:RDF>
  </metadata>
  <g
     inkscape:label="Layer 1"
     inkscape:groupmode="layer"
     id="layer1">
    <g
       id="g3111"
       transform="matrix(0.74117,0,0,0.74117,-115.917,-348.7503)">
      <path
         id="path1317"
         d="M 183.20982,470.54018 C 168.40152,470.63408 156.39731,482.70993 156.39732,497.54018 C 156.39732,512.42861 168.47764,524.50891 183.36607,524.50893 C 198.25449,524.50896 210.36606,512.42862 210.36607,497.54018 C 210.36607,482.65176 198.25449,470.54019 183.36607,470.54018 C 183.3079,470.54019 183.26789,470.53982 183.20982,470.54018 z M 182.58482,475.85268 C 182.72214,475.84749 182.85312,475.8553 182.99107,475.85268 C 183.13066,475.85001 183.22585,475.85268 183.36607,475.85268 C 195.33136,475.85268 205.08482,485.57491 205.08482,497.54018 C 205.08483,509.50548 195.33136,519.22768 183.36607,519.22768 C 171.4008,519.22768 161.70982,509.50547 161.70982,497.54018 C 161.70981,485.8537 171.00441,476.2907 182.58482,475.85268 z "
         style="opacity:1;color:#000000;fill:#ccff00;fill-opacity:1;fill-rule:evenodd;stroke:none;stroke-width:0.22750117;stroke-linecap:butt;stroke-linejoin:miter;marker:none;marker-start:none;marker-mid:none;marker-end:none;stroke-miterlimit:4;stroke-dasharray:none;stroke-dashoffset:0;stroke-opacity:0.97530865;visibility:visible;display:inline;overflow:visible" />
      <path
         sodipodi:nodetypes="czccssssssczcssssssc"
         d="M 183.40748,500.43201 C 183.40748,500.43201 181.64964,501.47228 180.29465,500.05854 C 178.96952,498.67595 179.97678,496.76419 179.97678,496.76419 C 179.97678,496.76419 190.32454,486.42331 190.19614,486.53272 C 188.21223,485.30369 185.87401,484.59375 183.375,484.59375 C 183.29132,484.59375 183.23955,484.59217 183.15625,484.59375 C 183.07392,484.59531 182.98821,484.59067 182.90625,484.59375 C 182.79826,484.59783 182.70105,484.58702 182.59375,484.59375 C 175.83357,485.01759 170.4375,490.66578 170.4375,497.53125 C 170.4375,504.67208 176.23418,510.46875 183.375,510.46875 C 187.6016,510.46875 191.36825,508.43797 193.73869,505.29968 C 193.73869,505.29968 195.74164,503.3142 197.53792,504.73819 C 199.3973,506.21218 197.56484,508.75064 197.56484,508.75064 C 194.24898,512.93672 189.1222,515.625 183.375,515.625 C 173.39215,515.62498 165.28125,507.51411 165.28125,497.53125 C 165.28124,487.82047 172.95547,479.86344 182.5625,479.4375 C 182.79307,479.42728 183.04854,479.43898 183.28125,479.4375 C 183.32019,479.43726 183.33599,479.43752 183.375,479.4375 C 188.95211,479.43751 193.94497,481.96902 197.2657,485.94416 C 197.41089,486.11797 183.40748,500.43201 183.40748,500.43201 z "
         style="color:#000000;fill:#2a6095;fill-opacity:1;fill-rule:evenodd;stroke:none;stroke-width:0.15254194;stroke-linecap:butt;stroke-linejoin:miter;marker:none;marker-start:none;marker-mid:none;marker-end:none;stroke-miterlimit:4;stroke-dashoffset:0;stroke-opacity:0.97530865;visibility:visible;display:inline;overflow:visible"
         id="path1334" />
    </g>
  </g>
</svg>
